# AST/ASF file generated using VICON BodyLanguage
# -----------------------------------------------
:version 1.10
:name VICON
:units
  mass 1.0
  length 0.45
  angle deg
:documentation
   .ast/.asf automatically generated from VICON data using
   VICON BodyBuilder and BodyLanguage model FoxedUp or BRILLIANT.MOD
:root
   order TX TY TZ RX RY RZ
   axis XYZ
   position 0 0 0  
   orientation 0 0 0 
:bonedata
  begin
     id 1 
     name lhipjoint
     direction 0.671379 -0.66392 0.329334 
     length 2.38647 
     axis 0 0 0  XYZ
  end
  begin
     id 2 
     name lfemur
     direction 0.34202 -0.939693 0  
     length 6.48179  
     axis 0 0 20  XYZ
    dof rx ry rz
    limits (-160.0 20.0)
           (-70.0 70.0)
           (-60.0 70.0)
  end
  begin
     id 3 
     name ltibia
     direction 0.34202 -0.939693 0   
     length 6.86524   
     axis 0 0 20   XYZ
    dof rx
    limits (-10.0 170.0)
  end
  begin
     id 4 
     name lfoot
     direction 0.204886 -0.562919 0.800715   
     length 1.73031   
     axis -90 7.62852e-016 20   XYZ
    dof rx rz
    limits (-45.0 90.0)
           (-70.0 20.0)
  end
  begin
     id 5 
     name ltoes
     direction 1.53548e-011 -4.21841e-011 1   
     length 0.828161   
     axis -90 7.62852e-016 20   XYZ
    dof rx
    limits (-90.0 20.0)
  end
  begin
     id 6 
     name rhipjoint
     direction -0.662732 -0.670855 0.332775   
     length 2.3618  
     axis 0 0 0  XYZ 
  end
  begin
     id 7 
     name rfemur
     direction -0.34202 -0.939693 0   
     length 6.3025   
     axis 0 0 -20   XYZ
    dof rx ry rz
    limits (-160.0 20.0)
           (-70.0 70.0)
           (-70.0 60.0)
  end
  begin
     id 8 
     name rtibia
     direction -0.34202 -0.939693 0   
     length 6.8732   
     axis 0 0 -20   XYZ
    dof rx
    limits (-10.0 170.0)
 end
 begin
     id 9 
     name rfoot
     direction -0.173856 -0.477665 0.861168   
     length 1.54784  
     axis -90 -7.62852e-016 -20   XYZ
    dof rx rz
    limits (-45.0 90.0)
           (-20.0 70.0)
  end
  begin
     id 10 
     name rtoes
     direction -1.53562e-011 -4.21802e-011 1   
     length 0.759618   
     axis -90 -7.62852e-016 -20   XYZ
    dof rx
    limits (-90.0 20.0)
  end
  begin
     id 11 
     name lowerback
     direction -0.0278357 0.999497 -0.0151789   
     length 1.97203   
     axis 0 0 0   XYZ
    dof rx ry rz
    limits (-20.0 45.0)
           (-30.0 30.0)
           (-30.0 30.0)
  end
  begin
     id 12 
     name upperback
     direction -0.00360622 0.997542 0.0699804   
     length 1.94709   
     axis 0 0 0   XYZ
    dof rx ry rz
    limits (-20.0 45.0)
           (-30.0 30.0)
           (-30.0 30.0)
  end
  begin
     id 13 
     name thorax
     direction 0.00907706 0.997048 0.0762461   
     length 1.95722   
     axis 0 0 0   XYZ
    dof rx ry rz
    limits (-20.0 45.0)
           (-30.0 30.0)
           (-30.0 30.0)
  end
  begin
     id 14 
     name lowerneck
     direction -0.0481835 0.99872 -0.0153927   
     length 1.63078   
     axis 0 0 0   XYZ
    dof rx ry rz
    limits (-20.0 45.0)
           (-30.0 30.0)
           (-30.0 30.0)
  end
  begin
     id 15 
     name upperneck
     direction 0.0859716 0.979226 -0.183644   
     length 1.62591   
     axis 0 0 0   XYZ
    dof rx ry rz
    limits (-20.0 45.0)
           (-30.0 30.0)
           (-30.0 30.0)
  end
  begin
     id 16
     name head
     direction 0.0324821 0.997629 -0.0606773  
     length 1.64811  
     axis 0 0 0   XYZ
    dof rx ry rz
    limits (-20.0 45.0)
           (-30.0 30.0)
           (-30.0 30.0)
  end
  begin
     id 17 
     name lclavicle
     direction 0.939609 0.311019 0.142835  
     length 3.70647  
     axis 0 0 0   XYZ
    dof ry rz
    limits (-20.0 10.0)
           (0.0 20.0)
  end
  begin
     id 18 
     name lhumerus
     direction 1 -4.48963e-011 -1.59838e-027   
     length 4.59207   
     axis 180 -30 -90   XYZ
    dof rx ry rz
    limits (-60.0 90.0)
           (-90.0 90.0)
           (-90.0 90.0)
  end
  begin
     id 19
     name lradius
     direction 1 -4.48957e-011 -1.3483e-026   
     length 2.98109   
     axis 180 -30 -90   XYZ
    dof rx
    limits (-10.0 170.0)
  end
  begin
     id 20
     name lwrist
     direction 1 -4.48954e-011 -3.11579e-026   
     length 1.49055   
     axis 2.00652e-014 90 90   XYZ
    dof ry
    limits (-180.0 0.0)
 end
  begin
     id 21 
     name lhand
     direction 1 -4.4911e-011 -6.23158e-026   
     length 0.480203   
     axis 3.97628e-014 90 90   XYZ
    dof rx rz
    limits (-90.0 90.0)
           (-45.0 45.0)
  end
  begin
     id 22 
     name lfingers
     direction 1 -4.48893e-011 -1.24632e-025   
     length 0.387152   
     axis 7.95256e-014 90 90   XYZ
    dof rx
    limits (0.0 90.0)
  end
  begin
     id 23
     name lthumb
     direction 0.707107 -6.35013e-011 0.707107   
     length 0.555875   
     axis -90 45 2.85299e-015   XYZ
    dof rx rz
    limits (-45.0 45.0)
           (-45.0 45.0)
  end
  begin
     id 24 
     name rclavicle
     direction -0.950396 0.30392 0.0661859   
     length 3.70894  
     axis 0 0 0   XYZ 
    dof ry rz
    limits (-10.0 20.0)
           (-20.0 0.0)
  end
  begin
     id 25 
     name rhumerus
     direction -1 -4.48957e-011 -2.96677e-027  
     length 4.76508   
     axis 180 30 90   XYZ
    dof rx ry rz
    limits (-90.0 60.0)
           (-90.0 90.0)
           (-90.0 90.0)
  end
  begin
     id 26 
     name rradius
     direction -1 -4.48974e-011 -1.44501e-026   
     length 2.78902   
     axis 180 30 90   XYZ
    dof rx
    limits (-10.0 170.0)
  end
  begin
     id 27 
     name rwrist
     direction -1 -4.48978e-011 -3.11579e-026   
     length 1.39451   
     axis 2.00652e-014 -90 -90   XYZ
    dof ry
    limits (-180.0 0.0)
  end
  begin
     id 28
     name rhand
     direction -1 -4.48956e-011 -6.23158e-026   
     length 0.721303   
     axis 3.97628e-014 -90 -90   XYZ
    dof rx rz
    limits (-90.0 90.0)
           (-45.0 45.0)
  end
  begin
     id 29
     name rfingers
     direction -1 -4.4899e-011 -1.24632e-025   
     length 0.581533   
     axis 7.95256e-014 -90 -90   XYZ
    dof rx
    limits (0.0 90.0)
  end
  begin
     id 30
     name rthumb
     direction -0.707107 -6.34911e-011 0.707107   
     length 0.834968   
     axis -90 -45 -2.85299e-015   XYZ
    dof rx rz
    limits (-45.0 45.0)
           (-45.0 45.0)
  end
:hierarchy
  begin
    root lhipjoint rhipjoint lowerback
    lhipjoint lfemur
    lfemur ltibia
    ltibia lfoot
    lfoot ltoes
    rhipjoint rfemur
    rfemur rtibia
    rtibia rfoot
    rfoot rtoes
    lowerback upperback
    upperback thorax
    thorax lowerneck lclavicle rclavicle
    lowerneck upperneck
    upperneck head
    lclavicle lhumerus
    lhumerus lradius
    lradius lwrist
    lwrist lhand lthumb
    lhand lfingers
    rclavicle rhumerus
    rhumerus rradius
    rradius rwrist
    rwrist rhand rthumb
    rhand rfingers
  end

#!OML:ASF I:\salsa\salsa 7_09\Patient 1\Session 1\dancerfemale.ASF
:FULLY-SPECIFIED
:DEGREES
81
root 26.6889 15.7555 0.0495427 243.738 -92.6042 -239.342
lowerback 1.47768 0.446835 -0.641485
upperback -6.26065 0.50211 1.00652
thorax -7.37145 0.266985 1.37972
lowerneck -1.81684 -2.85502 -9.88455
upperneck 6.42812 -4.19575 10.6896
head 2.62222 -2.05194 4.73408
rclavicle -9.06955e-016 -9.59136e-015
rhumerus -73.2999 -42.4247 -32.9406
rradius 40.7921
rwrist -154.443
rhand -34.9833 -57.4074
rfingers 7.12502
rthumb -8.12862 -87.2311
lclavicle -9.06955e-016 -9.59136e-015
lhumerus -46.5097 24.2281 79.0252
lradius 33.32
lwrist -27.5328
lhand -16.1452 35.8391
lfingers 7.12502
lthumb 10.0601 65.5787
rfemur -19.9396 -10.4494 27.0687
rtibia 28.5863
rfoot -24.3951 -1.86463
rtoes -11.9464
lfemur -17.2669 -6.08201 -19.5362
ltibia 44.1885
lfoot -29.4984 6.39883
ltoes -32.9672
82
root 26.6449 15.7315 0.0191394 246.474 -93.0277 -242.154
lowerback 1.87991 0.434636 -0.0651645
upperback -6.25198 0.532391 1.19026
thorax -7.59302 0.255229 1.24553
lowerneck -2.0499 -2.78577 -9.90444
upperneck 6.42028 -4.05941 10.4708
head 2.64101 -1.98197 4.6715
rclavicle -3.01283e-015 7.62836e-015
rhumerus -70.9363 -42.4781 -35.6817
rradius 40.7763
rwrist -154.627
rhand -34.9711 -57.6766
rfingers 7.12502
rthumb -8.11685 -87.5007
lclavicle -3.01283e-015 7.62836e-015
lhumerus -47.3887 26.7091 76.093
lradius 31.2604
lwrist -29.706
lhand -17.0085 34.6225
lfingers 7.12502
lthumb 9.22718 64.4006
rfemur -19.8316 -10.631 27.6717
rtibia 28.8228
rfoot -24.4265 -1.6988
rtoes -11.1608
lfemur -18.4305 -5.41492 -18.9592
ltibia 46.5366
lfoot -29.0211 6.23824
ltoes -33.7698
83
root 26.6019 15.706 -0.00599465 248.825 -93.2853 -244.509
lowerback 2.15992 0.464126 0.332127
upperback -6.25164 0.608766 1.34301
thorax -7.75553 0.274449 1.17572
lowerneck -2.07273 -2.72141 -9.90723
upperneck 6.27537 -3.94119 10.2693
head 2.5864 -1.92656 4.6136
rclavicle -3.06602e-015 -4.34531e-015
rhumerus -68.6691 -42.5681 -38.1964
rradius 40.7661
rwrist -154.633
rhand -34.8578 -58.0327
rfingers 7.12502
rthumb -8.0075 -87.861
lclavicle -3.06602e-015 -4.34531e-015
lhumerus -48.7806 28.2998 73.6924
lradius 30.2762
lwrist -30.5975
lhand -18.4161 32.8033
lfingers 7.12502
lthumb 7.86871 62.6368
rfemur -19.8113 -10.6703 28.1079
rtibia 29.0384
rfoot -24.3693 -1.59645
rtoes -10.3383
lfemur -19.6587 -4.66557 -18.5556
ltibia 48.832
lfoot -28.4365 6.09429
ltoes -34.2716
84
root 26.557 15.6981 -0.0281826 251.729 -93.3141 -247.36
lowerback 2.23067 0.478888 1.01363
upperback -6.17916 0.657374 1.07642
thorax -7.70752 0.249134 0.509296
lowerneck -2.07823 -2.58164 -9.47328
upperneck 5.96247 -3.74256 10.1895
head 2.46499 -1.82022 4.52411
rclavicle -1.96921e-015 8.69683e-015
rhumerus -66.7505 -43.1967 -40.7177
rradius 40.6814
rwrist -154.107
rhand -34.8474 -58.4895
rfingers 7.12502
rthumb -7.99745 -88.3182
lclavicle -1.96921e-015 8.69683e-015
lhumerus -50.2064 28.5461 71.7273
lradius 30.7304
lwrist -30.4167
lhand -18.6907 33.4184
lfingers 7.12502
lthumb 7.6037 63.2617
rfemur -19.7945 -10.5245 28.3169
rtibia 29.1759
rfoot -24.2783 -1.59661
rtoes -9.14914
lfemur -20.8142 -3.89607 -18.3947
ltibia 50.8381
lfoot -27.8122 6.21779
ltoes -34.6511
85
root 26.514 15.6915 -0.0488411 254.737 -93.2563 -250.267
lowerback 2.48698 0.545731 1.27164
upperback -6.26157 0.763806 1.00005
thorax -7.9427 0.281331 0.273761
lowerneck -2.21314 -2.47511 -9.17133
upperneck 5.91932 -3.57784 9.92238
head 2.44852 -1.73438 4.39565
rclavicle 1.54679e-015 7.45443e-015
rhumerus -64.8172 -43.5138 -42.9046
rradius 40.5523
rwrist -153.676
rhand -34.8997 -58.8381
rfingers 7.12502
rthumb -8.04796 -88.6648
lclavicle 1.54679e-015 7.45443e-015
lhumerus -51.5029 28.6091 70.2608
lradius 31.0784
lwrist -30.1998
lhand -18.3253 33.1552
lfingers 7.12502
lthumb 7.95634 62.9855
rfemur -19.8125 -10.1846 28.424
rtibia 29.288
rfoot -24.2374 -1.83997
rtoes -8.34229
lfemur -21.902 -3.18514 -18.342
ltibia 52.4646
lfoot -27.5594 6.66902
ltoes -34.9289
86
root 26.4698 15.6883 -0.0672428 257.741 -93.1418 -253.173
lowerback 2.70412 0.646031 1.49449
upperback -6.33302 0.909164 0.853985
thorax -8.14135 0.331927 -0.0199251
lowerneck -2.25351 -2.40309 -8.77392
upperneck 5.8076 -3.46811 9.64622
head 2.40049 -1.67717 4.24785
rclavicle -2.93207e-015 -3.08116e-015
rhumerus -62.8236 -43.5556 -45.4354
rradius 40.6879
rwrist -153.848
rhand -35.0787 -58.9108
rfingers 7.12502
rthumb -8.2207 -88.7309
lclavicle -2.93207e-015 -3.08116e-015
lhumerus -52.3535 28.0522 69.5324
lradius 31.5718
lwrist -29.4522
lhand -18.2751 33.2016
lfingers 7.12502
lthumb 8.00483 63.03
rfemur -19.7589 -9.60878 28.4332
rtibia 29.3125
rfoot -24.2424 -2.30656
rtoes -7.53351
lfemur -22.809 -2.60885 -18.3864
ltibia 53.6013
lfoot -27.6368 7.48967
ltoes -35.0744
87
root 26.4216 15.693 -0.0818715 259.729 -92.8993 -255.095
lowerback 2.80528 0.763168 1.32705
upperback -6.30739 1.05757 0.828103
thorax -8.17359 0.415398 0.0308938
lowerneck -2.1551 -2.35015 -8.27852
upperneck 5.44201 -3.36027 9.06593
head 2.24937 -1.62923 3.99221
rclavicle -5.19946e-015 -3.62782e-015
rhumerus -60.5352 -43.2801 -48.1488
rradius 41.0429
rwrist -154.601
rhand -35.2778 -58.7076
rfingers 7.12502
rthumb -8.4129 -88.52
lclavicle -5.19946e-015 -3.62782e-015
lhumerus -52.8949 27.3656 69.6587
lradius 32.3069
lwrist -28.5026
lhand -18.5536 33.7173
lfingers 7.12502
lthumb 7.73601 63.5558
rfemur -19.6062 -8.86855 28.2347
rtibia 29.3167
rfoot -24.3857 -2.93895
rtoes -7.67102
lfemur -23.4653 -2.27588 -18.5999
ltibia 54.1854
lfoot -27.9372 8.42409
ltoes -35.0131
88
root 26.3709 15.7059 -0.0928826 260.346 -92.5049 -255.591
lowerback 2.79594 0.836875 1.03527
upperback -6.25233 1.13277 0.743935
thorax -8.11112 0.469597 0.0984221
lowerneck -2.34283 -2.28123 -7.95984
upperneck 5.3072 -3.23181 8.67167
head 2.21847 -1.56291 3.82106
rclavicle -1.963e-015 -2.88238e-015
rhumerus -58.128 -42.6737 -51.1893
rradius 41.5721
rwrist -155.804
rhand -35.3253 -58.3915
rfingers 7.12502
rthumb -8.45872 -88.2021
lclavicle -1.963e-015 -2.88238e-015
lhumerus -53.2936 26.8987 69.7546
lradius 32.9904
lwrist -27.3675
lhand -18.5831 33.3231
lfingers 7.12502
lthumb 7.70756 63.1626
rfemur -19.4618 -8.08691 27.826
rtibia 29.2843
rfoot -24.6344 -3.6833
rtoes -8.32949
lfemur -23.9849 -2.19808 -19.0017
ltibia 54.2069
lfoot -28.4349 9.46548
ltoes -34.7028
89
root 26.3196 15.7252 -0.0992911 262.177 -91.9984 -257.136
lowerback 2.64096 0.924558 0.711921
upperback -6.29902 1.21569 0.612464
thorax -8.07383 0.525328 0.135299
lowerneck -2.61976 -2.194 -8.06408
upperneck 5.4392 -3.09988 8.72121
head 2.29428 -1.49095 3.85498
rclavicle 1.8723e-014 5.91384e-015
rhumerus -55.9744 -41.7339 -54.1127
rradius 42.2246
rwrist -157.479
rhand -35.3693 -58.2978
rfingers 7.12502
rthumb -8.50119 -88.1067
lclavicle 1.8723e-014 5.91384e-015
lhumerus -53.7051 26.5217 69.8119
lradius 33.7177
lwrist -26.0566
lhand -18.0837 33.0146
lfingers 7.12502
lthumb 8.18954 62.8358
rfemur -19.4848 -7.26459 27.2986
rtibia 29.2045
rfoot -24.6661 -4.41973
rtoes -9.91217
lfemur -24.4908 -2.21361 -19.4983
ltibia 53.6957
lfoot -28.9367 10.0145
ltoes -34.4561
